# xmcd
#
# Track frame offsets:
# 150
# 25015
# 48572
# 73207
# 94255
# 116565
# 136017
# 160365
# 182260
# 205757
#
# Disc length: 2912 seconds
#
#
# Revision: 0
# Processed by: cddbd v1.5.1PL2 Copyright (c) Steve Scherf et al.
# Submitted via: FreeRIP 2.944 
#
DISCID=830b5e0a
DTITLE=Billy Preston - The Best Of
DYEAR=2000
DGENRE=Jazz
TTITLE0=Hold Me
TTITLE1=Right Now
TTITLE2=Lonely No More
TTITLE3=Supernatural Thang
TTITLE4=You And I ( Duet )
TTITLE5=I'm In Love With You
TTITLE6=Getting It On
TTITLE7=Dream Lover
TTITLE8=Sweet Senseous Sensation
TTITLE9=You Are So Beautiful
EXTD=
EXTT0=
EXTT1=
EXTT2=
EXTT3=
EXTT4=
EXTT5=
EXTT6=
EXTT7=
EXTT8=
EXTT9=
PLAYORDER=
